<svg xmlns="http://www.w3.org/2000/svg" viewBox="0 0 200 200"><rect width="200" height="200" fill="#56C02B"/><text x="100" y="35" text-anchor="middle" fill="white" font-size="22" font-weight="bold" font-family="Arial, sans-serif">15</text><text x="100" y="55" text-anchor="middle" fill="white" font-size="14" font-weight="bold" font-family="Arial, sans-serif">LIFE</text><text x="100" y="72" text-anchor="middle" fill="white" font-size="14" font-weight="bold" font-family="Arial, sans-serif">ON LAND</text><g transform="translate(100, 120)"><path d="M -5 20 L -5 0 L -15 5 L -10 0 L -18 -5 L -10 0 L -15 -10 L -5 -5 L 0 -15 L 5 -5 L 15 -10 L 10 0 L 18 -5 L 10 0 L 15 5 L 5 0 L 5 20 Z" fill="white"/><rect x="-20" y="20" width="40" height="4" fill="white"/><path d="M -12 22 L -8 26 M -4 22 L 0 26 M 4 22 L 8 26" stroke="white" stroke-width="2" fill="none"/></g></svg>
